# xmcd
#
# Track frame offsets:
#	150
#	23210
#	38230
#	58250
#	74555
#	90275
#	107497
#	124835
#	140830
#	160047
#	183867
#	197360
#	216145
#	235247
#
# Disc length: 3467 seconds
#
# Revision: 9
# Processed by: cddbd v1.5.2PL0 Copyright (c) Steve Scherf et al.
# Submitted via: EasyCDDAExtractor 2010.6.0.0
#
DISCID=c00d890e
DTITLE=Cassiane - Com Muito Louvor
DYEAR=1999
DGENRE=Gospel
TTITLE0=Com Muito Louvor
TTITLE1=Festa No Ceu
TTITLE2=Com Cristo Eh Vencer
TTITLE3=Basta Uma Palavra
TTITLE4=Fogo Santo
TTITLE5=Hino Da Vitoria
TTITLE6=Cachoeira De Poder
TTITLE7=Santo, Santo
TTITLE8=Oferta Agradavel A Ti
TTITLE9=Forte Campeao
TTITLE10=Como Deus Nao Ha
TTITLE11=Deus Tem Poder
TTITLE12=O Chamado
TTITLE13=Tudo Novo
EXTD=YEAR: 2002
EXTT0=
EXTT1=
EXTT2=
EXTT3=
EXTT4=
EXTT5=
EXTT6=
EXTT7=
EXTT8=
EXTT9=
EXTT10=
EXTT11=
EXTT12=
EXTT13=
PLAYORDER=
